<svg width="384" height="270" viewBox="0 0 384 270" fill="none" xmlns="http://www.w3.org/2000/svg">
<path d="M186.379 63.3212C185.121 63.3212 183.757 61.9154 183.373 60.6445C182.918 58.9689 183.217 57.1939 184.19 55.6674C182.762 54.8864 181.014 54.7018 179.735 55.7455C178.804 56.5123 178.562 57.5702 178.967 59.1819C179.017 59.3736 178.896 59.5653 178.711 59.615C178.519 59.6647 178.327 59.544 178.278 59.3594C177.979 58.1737 177.759 56.4484 179.28 55.1988C180.829 53.9279 182.925 54.1551 184.595 55.0923C184.61 55.0781 184.624 55.0568 184.638 55.0426C186.052 53.2818 188.156 52.2878 190.274 52.3801C190.466 52.3943 190.665 52.4227 190.856 52.4582C191.141 51.7056 191.532 51.024 191.986 50.5057C193.337 48.7662 195.263 48.5745 197.125 48.3899C197.324 48.3757 197.494 48.5106 197.515 48.7094C197.537 48.9011 197.395 49.0786 197.196 49.0999C195.405 49.2774 193.713 49.4478 192.534 50.9601C192.15 51.4003 191.809 51.9754 191.56 52.6144C193.294 53.0901 194.808 54.2048 194.971 55.9727C195.085 57.5205 194.225 58.2944 193.458 58.4861C192.42 58.7488 191.34 58.1595 190.842 57.059C190.295 55.852 190.295 54.432 190.643 53.1398C190.501 53.1185 190.366 53.1043 190.224 53.0901C188.355 53.0049 186.472 53.8995 185.2 55.4757C185.399 55.6177 185.583 55.7668 185.761 55.923C187.197 57.3572 188.44 59.7996 188.056 61.7095C187.687 63.1082 186.855 63.3212 186.401 63.3283C186.401 63.3212 186.386 63.3212 186.379 63.3212ZM184.794 56.0437C183.927 57.3998 183.657 58.976 184.062 60.4457C184.389 61.5249 185.555 62.6467 186.401 62.6112C186.863 62.6041 187.189 62.242 187.374 61.5391C187.701 59.9132 186.543 57.6909 185.285 56.4342C185.128 56.2922 184.965 56.1644 184.794 56.0437ZM191.347 53.2818C191.034 54.432 191.02 55.71 191.496 56.7608C191.915 57.6767 192.718 57.9394 193.294 57.7974C193.82 57.6625 194.353 57.13 194.275 56.0295C194.14 54.6024 192.811 53.6794 191.347 53.2818Z" fill="#99D5CB"/>
<path d="M108.313 69.8603C103.885 67.141 104.191 63.2786 108.988 61.2835L157.945 40.9349C162.742 38.9398 164.683 41.0627 162.245 45.6493L143.718 80.5458C141.28 85.1324 135.666 86.666 131.232 83.9396L108.313 69.8603Z" fill="#DCD8F0"/>
<path d="M363.357 94.0571C360.727 94.0571 358.268 93.0418 356.42 91.1958L346.478 81.2629C344.631 79.4169 343.614 76.9603 343.614 74.3333C343.614 71.7063 344.631 69.2497 346.478 67.4037L356.42 57.4708C358.268 55.6248 360.727 54.6095 363.357 54.6095C365.986 54.6095 368.445 55.6248 370.293 57.4708L380.235 67.4037C382.083 69.2497 383.099 71.7063 383.099 74.3333C383.099 76.9603 382.083 79.4169 380.235 81.2629L370.293 91.1958C368.452 93.0418 365.986 94.0571 363.357 94.0571ZM363.357 55.3266C360.919 55.3266 358.638 56.2709 356.925 57.9749L346.983 67.9078C345.27 69.6189 344.332 71.898 344.332 74.3333C344.332 76.7686 345.277 79.0548 346.983 80.7588L356.925 90.6917C358.638 92.4028 360.919 93.34 363.357 93.34C365.794 93.34 368.075 92.3957 369.788 90.6917L379.73 80.7588C381.443 79.0477 382.381 76.7686 382.381 74.3333C382.381 71.898 381.436 69.6189 379.73 67.9078L369.788 57.9749C368.083 56.2709 365.794 55.3266 363.357 55.3266Z" fill="#F1E0D9"/>
<path d="M69.6525 77.1024C71.1662 78.6076 71.1662 81.0784 69.6525 82.5907L65.5661 86.6732C64.0595 88.1855 61.5864 88.1855 60.0727 86.6732L55.9864 82.5907C54.4726 81.0855 54.4726 78.6147 55.9864 77.1024L60.0727 73.0199C61.5793 71.5147 64.0524 71.5147 65.5661 73.0199L69.6525 77.1024Z" fill="#82E4F0"/>
<path d="M369.163 228.019C369.163 229.623 367.863 230.923 366.257 230.923C364.651 230.923 363.35 229.623 363.35 228.019C363.35 226.414 364.651 225.115 366.257 225.115C367.863 225.108 369.163 226.414 369.163 228.019Z" fill="#DCD8F0"/>
<path d="M364.821 235.048C364.821 236.652 363.521 237.952 361.914 237.952C360.308 237.952 359.008 236.652 359.008 235.048C359.008 233.443 360.308 232.144 361.914 232.144C363.521 232.144 364.821 233.443 364.821 235.048Z" fill="#DCD8F0"/>
<path d="M367.593 235.048C367.593 236.652 368.893 237.952 370.499 237.952C372.106 237.952 373.406 236.652 373.406 235.048C373.406 233.443 372.106 232.144 370.499 232.144C368.893 232.144 367.593 233.443 367.593 235.048Z" fill="#DCD8F0"/>
<path d="M318.379 22.6595C318.379 24.2641 317.078 25.5634 315.472 25.5634C313.866 25.5634 312.565 24.2641 312.565 22.6595C312.565 21.0549 313.866 19.7556 315.472 19.7556C317.078 19.7485 318.379 21.0549 318.379 22.6595Z" fill="#AAD5CE"/>
<path d="M314.036 29.6886C314.036 31.2932 312.736 32.5925 311.13 32.5925C309.524 32.5925 308.223 31.2932 308.223 29.6886C308.223 28.084 309.524 26.7847 311.13 26.7847C312.736 26.7847 314.036 28.084 314.036 29.6886Z" fill="#AAD5CE"/>
<path d="M316.801 29.6886C316.801 31.2932 318.101 32.5925 319.707 32.5925C321.313 32.5925 322.614 31.2932 322.614 29.6886C322.614 28.084 321.313 26.7847 319.707 26.7847C318.108 26.7847 316.801 28.084 316.801 29.6886Z" fill="#AAD5CE"/>
<path d="M122.071 61.6386C115.86 61.6386 110.807 56.5905 110.807 50.3851C110.807 44.1797 115.86 39.1316 122.071 39.1316C128.282 39.1316 133.335 44.1797 133.335 50.3851C133.335 56.5905 128.282 61.6386 122.071 61.6386ZM122.071 39.8416C116.251 39.8416 111.518 44.5702 111.518 50.3851C111.518 56.2 116.251 60.9286 122.071 60.9286C127.892 60.9286 132.625 56.2 132.625 50.3851C132.625 44.5702 127.892 39.8416 122.071 39.8416Z" fill="#F1E0D9"/>
<path d="M13.5524 241.063C6.08331 241.063 0 234.992 0 227.523C0 220.061 6.0762 213.983 13.5524 213.983C21.0215 213.983 27.1048 220.054 27.1048 227.523C27.1048 234.992 21.0215 241.063 13.5524 241.063ZM13.5524 214.7C6.47417 214.7 0.710667 220.458 0.710667 227.53C0.710667 234.602 6.47417 240.36 13.5524 240.36C20.6306 240.36 26.3942 234.602 26.3942 227.53C26.3942 220.451 20.6306 214.7 13.5524 214.7Z" fill="#F1E0D9"/>
<path d="M186.578 116.252C191.304 123.7 200.216 142.77 211.487 145.49C222.758 148.216 229.851 145.49 234.939 134.414C240.027 123.338 243.119 117.885 243.666 118.431C244.213 118.978 250.389 138.411 251.668 141.677C252.94 144.943 302.388 156.203 310.206 152.029C318.023 147.854 322.024 144.765 326.025 122.422C330.026 100.085 332.57 91.1816 329.479 83.3716C326.388 75.5616 324.568 72.8352 316.211 67.7516C307.846 62.668 294.4 54.929 283.563 54.574C276.648 54.3468 251.128 61.7592 240.589 74.1061C230.042 86.4601 214.955 119.873 213.868 120.604C206.598 112.794 205.325 110.976 205.325 110.976C205.325 110.976 185.121 113.71 186.578 116.252Z" fill="#2088F8"/>
<path d="M265.05 64.1875C266.99 67.9434 270.259 71.4508 276.804 70.3645C283.349 69.2711 289.333 61.0138 286.739 56.0012C284.181 51.0454 278.375 41.0628 278.375 41.0628C283.463 39.6073 283.584 30.0436 274.978 28.8366C271.218 17.6967 262.25 1.95598 242.742 11.2783C223.227 20.6006 224.457 23.611 225.665 30.2708C226.88 36.9306 230.988 40.0972 235.472 48.2125C239.963 56.3207 247.717 71.2094 265.05 64.1875Z" fill="#FF7E7D"/>
<path d="M209.106 115.442C205.979 111.956 203.94 109.081 203.94 109.081C203.94 109.081 183.217 109.173 184.666 111.715C185.647 113.263 188.724 119.859 190.053 122.159C193.209 123.728 203.357 124.85 209.106 115.442Z" fill="#FF7E7D"/>
<path d="M283.471 107.356C283.471 108.96 282.17 110.259 280.564 110.259H163.489C161.883 110.259 160.582 108.96 160.582 107.356V90.28C160.582 88.6754 161.883 87.3761 163.489 87.3761H280.564C282.17 87.3761 283.471 88.6754 283.471 90.28V107.356Z" fill="#F1E0D9"/>
<path d="M260.871 91.7355V105.9C260.871 105.9 273.421 105.9 275.61 105.9C277.799 105.9 279.107 105.282 279.107 102.861C279.107 100.071 279.107 96.2369 279.107 94.6962C279.107 92.2751 277.622 91.7355 276.257 91.7355C274.9 91.7355 260.871 91.7355 260.871 91.7355Z" fill="#151748"/>
<path d="M221.657 91.7355V105.9C221.657 105.9 170.851 105.9 168.662 105.9C166.474 105.9 165.166 105.282 165.166 102.861C165.166 100.071 165.166 96.2369 165.166 94.6962C165.166 92.2751 166.651 91.7355 168.016 91.7355C169.373 91.7355 221.657 91.7355 221.657 91.7355Z" fill="#7967CC"/>
<path d="M260.992 91.7355H221.181V105.9H260.992V91.7355Z" fill="#82E4F0"/>
<path d="M261.113 123.877C260.019 121.513 259.749 118.701 258.384 117.615C257.02 116.522 256.202 115.528 254.475 116.436C252.749 117.345 250.567 116.252 249.472 114.441C247.475 115.35 246.566 114.534 246.566 114.534C244.569 115.627 242.202 116.074 240.113 112.446C238.024 108.811 240.838 101.91 243.837 108.271C244.022 104.516 246.203 102.215 247.653 102.946C249.11 103.671 249.018 105.275 249.018 105.275C249.529 102.464 252.983 101.37 253.473 105.73C254.93 103.735 255.655 104.274 257.382 106.908C259.109 109.542 258.441 109.876 261.717 109.599C263.231 108.634 269.684 107.327 271.595 108.875C273.507 110.416 275.746 113.902 278.02 116.174C275.021 122.741 265.597 126.426 261.113 123.877Z" fill="#FF7E7D"/>
<path d="M179.471 106.674C178.15 103.926 174.745 102.719 174.198 106.234C173.651 109.748 177.382 117.43 182.662 115.457C187.978 116.593 189.542 117.75 191.19 117.416C192.839 117.09 201.339 118.637 202.767 112.602C198.922 112.709 197.714 112.162 197.714 112.162C195.625 109.414 192.988 106.454 191.887 106.674C190.785 106.894 191.006 108.428 191.006 108.428C189.797 104.586 188.589 103.266 187.267 103.266C185.953 103.266 185.071 105.46 185.071 105.46C183.97 101.952 180.566 99.5384 179.471 106.674Z" fill="#FF7E7D"/>
<path d="M191.304 117.622C190.473 117.622 189.762 117.452 189.052 117.281C188.86 117.239 188.668 117.189 188.469 117.146C187.943 117.033 187.374 116.969 186.77 116.905C185.264 116.742 183.558 116.557 182.179 115.442C179.522 113.291 179.223 108.499 179.109 106.695C179.095 106.496 179.244 106.333 179.443 106.319C179.642 106.305 179.806 106.454 179.82 106.653C179.927 108.371 180.211 112.936 182.627 114.896C183.842 115.875 185.37 116.046 186.849 116.202C187.474 116.273 188.057 116.337 188.625 116.458C188.824 116.5 189.023 116.55 189.222 116.593C190.857 116.983 192.399 117.352 195.412 115.513C195.583 115.414 195.796 115.464 195.902 115.634C196.002 115.804 195.952 116.017 195.782 116.124C193.87 117.281 192.477 117.622 191.304 117.622Z" fill="black"/>
<path d="M190.124 115.812C190.082 115.812 190.046 115.804 190.003 115.79C183.913 113.575 184.46 108.044 184.695 105.687L184.716 105.438C184.737 105.247 184.901 105.098 185.1 105.119C185.292 105.14 185.441 105.311 185.42 105.502L185.398 105.758C185.164 108.144 184.674 113.106 190.245 115.13C190.43 115.194 190.522 115.4 190.458 115.584C190.409 115.719 190.274 115.812 190.124 115.812Z" fill="black"/>
<path d="M198.581 112.432C198.254 112.432 197.899 112.375 197.458 112.134C196.698 111.722 196.023 111.019 195.604 110.21C195.511 110.032 195.582 109.819 195.76 109.734C195.938 109.642 196.151 109.713 196.236 109.89C196.584 110.572 197.167 111.175 197.799 111.516C198.261 111.765 198.553 111.743 198.986 111.701C199.171 111.686 199.37 111.665 199.597 111.665C199.796 111.665 199.953 111.821 199.953 112.02C199.953 112.219 199.796 112.375 199.597 112.375C199.391 112.375 199.214 112.389 199.05 112.404C198.894 112.418 198.745 112.432 198.581 112.432Z" fill="black"/>
<path d="M197.657 116.493C197.238 116.493 196.84 116.444 196.471 116.344C194.268 115.847 192.754 114.015 191.873 112.567C191.375 111.765 191.212 110.905 191.048 110.068C190.963 109.613 190.878 109.187 190.75 108.761C190.693 108.577 190.792 108.378 190.984 108.314C191.169 108.257 191.368 108.357 191.432 108.548C191.574 109.01 191.667 109.478 191.752 109.933C191.908 110.735 192.05 111.495 192.484 112.191C193.294 113.525 194.673 115.201 196.648 115.648C197.466 115.868 198.425 115.805 199.519 115.464C199.711 115.407 199.903 115.506 199.967 115.698C200.024 115.883 199.924 116.081 199.733 116.145C198.979 116.373 198.29 116.493 197.657 116.493Z" fill="black"/>
<path d="M263.878 114.81C262.947 114.81 262.286 114.576 261.817 114.271C260.857 113.639 260.395 112.46 260.58 111.118C260.964 108.357 264.482 108.186 267.886 108.03L268.554 108.002C268.767 107.987 268.916 108.144 268.923 108.335C268.93 108.534 268.781 108.697 268.589 108.704L267.921 108.733C264.666 108.889 261.589 109.031 261.291 111.211C261.22 111.722 261.17 112.986 262.215 113.674C263.103 114.257 265.391 114.747 270.75 111.495C270.92 111.395 271.133 111.445 271.24 111.615C271.34 111.786 271.29 111.999 271.119 112.105C267.729 114.157 265.427 114.81 263.878 114.81Z" fill="black"/>
<path d="M257.616 116.216C257.353 116.216 257.105 116.188 256.863 116.124C255.477 115.762 254.411 114.427 253.502 111.921C252.876 110.188 252.485 106.305 253.942 104.75C254.077 104.608 254.305 104.601 254.447 104.736C254.589 104.87 254.596 105.091 254.461 105.24C253.324 106.454 253.537 109.926 254.17 111.686C254.973 113.923 255.918 115.151 257.041 115.442C258.199 115.741 259.642 115.116 261.461 113.532C261.61 113.405 261.831 113.419 261.966 113.568C262.094 113.717 262.079 113.937 261.93 114.072C260.274 115.506 258.853 116.216 257.616 116.216Z" fill="black"/>
<path d="M252.528 116.862C251.874 116.862 251.285 116.664 250.752 116.273C247.973 114.221 247.937 107.086 248.783 104.693C248.847 104.508 249.053 104.416 249.238 104.473C249.423 104.537 249.522 104.743 249.458 104.927C248.705 107.05 248.74 113.902 251.178 115.705C252.258 116.5 253.729 116.223 255.541 114.882C255.698 114.768 255.925 114.796 256.039 114.953C256.16 115.109 256.124 115.329 255.968 115.45C254.689 116.394 253.537 116.862 252.528 116.862Z" fill="black"/>
<path d="M247.546 115.023C247.034 115.023 246.551 114.896 246.096 114.633C243.986 113.405 243.296 109.571 243.296 107.902C243.296 107.703 243.453 107.547 243.652 107.547C243.851 107.547 244.007 107.703 244.007 107.902C244.007 109.372 244.625 112.957 246.452 114.022C247.248 114.484 248.2 114.399 249.294 113.774C249.465 113.674 249.678 113.731 249.778 113.909C249.877 114.079 249.813 114.299 249.643 114.392C248.904 114.81 248.207 115.023 247.546 115.023Z" fill="black"/>
<path d="M297.534 129.01C297.463 129.01 297.392 128.989 297.328 128.947C297.058 128.762 296.312 128.364 295.374 127.867C292.958 126.589 288.914 124.459 285.545 121.996C283.655 120.618 282.276 119.461 281.168 118.531C279.611 117.224 278.666 116.436 277.927 116.422C277.728 116.422 277.572 116.259 277.579 116.06C277.579 115.861 277.742 115.733 277.941 115.712C278.936 115.726 279.896 116.529 281.63 117.984C282.731 118.907 284.103 120.057 285.972 121.421C289.298 123.849 293.313 125.972 295.715 127.235C296.753 127.782 297.442 128.144 297.748 128.357C297.911 128.471 297.947 128.691 297.84 128.854C297.755 128.961 297.641 129.01 297.534 129.01Z" fill="black"/>
<path d="M295.566 127.775C295.545 127.775 295.516 127.775 295.495 127.768C295.303 127.732 295.175 127.541 295.218 127.349C296.319 121.754 301.663 104.814 303.945 97.5859C304.506 95.8109 304.904 94.5542 305.039 94.0856C305.096 93.901 305.295 93.7874 305.48 93.8442C305.672 93.901 305.778 94.0998 305.721 94.2844C305.579 94.753 305.181 96.0168 304.62 97.7989C302.346 105.02 297.009 121.932 295.914 127.491C295.879 127.661 295.729 127.775 295.566 127.775Z" fill="black"/>
<path d="M225.438 18.4351C223.483 23.185 223.81 30.2353 224.848 30.8601C228.302 32.9475 232.573 32.1026 240.447 29.3194C248.321 26.5362 256.444 17.8174 256.444 17.8174C256.927 24.5979 259.479 26.8983 260.928 29.1987C262.385 31.4991 264.567 29.4401 266.507 31.0163C268.447 32.5925 270.799 37.0868 271.773 37.4489C272.747 37.811 274.147 34.8929 273.415 30.8956C275.717 29.3194 278.617 30.2779 279.59 30.8885C280.806 23.1353 277.657 12.251 271.595 7.28807C265.533 2.32517 253.9 -2.27563 243.844 1.23177C233.781 4.73917 228.223 11.6546 225.438 18.4351Z" fill="#151748"/>
<path d="M248.413 53.644C247.369 53.644 246.658 53.4381 246.168 53.0192C245.251 52.2382 245.272 50.8821 245.301 49.0148C245.308 48.6811 245.308 48.3332 245.308 47.964C245.308 44.556 244.249 42.6461 242.067 42.1349C241.875 42.0923 241.754 41.9006 241.804 41.7089C241.847 41.5172 242.039 41.4036 242.231 41.4462C244.746 42.0355 246.018 44.2294 246.018 47.964C246.018 48.3332 246.011 48.6882 246.011 49.0219C245.99 50.6975 245.969 51.9116 246.63 52.4725C247.234 52.9908 248.527 53.0618 250.695 52.6926C250.887 52.6642 251.071 52.792 251.107 52.9837C251.142 53.1754 251.007 53.36 250.815 53.3955C249.856 53.5588 249.067 53.644 248.413 53.644Z" fill="black"/>
<path d="M252.535 57.0235C251.54 57.0235 250.716 56.8034 250.275 56.6543C250.09 56.5904 249.991 56.3916 250.048 56.207C250.112 56.0224 250.311 55.923 250.495 55.9798C251.213 56.2212 253.082 56.6827 254.866 55.7739C256.23 55.0781 257.24 53.7291 257.865 51.7553C257.922 51.5707 258.121 51.4642 258.313 51.521C258.498 51.5778 258.604 51.7766 258.547 51.9683C257.865 54.1267 256.735 55.6177 255.2 56.4058C254.276 56.8744 253.352 57.0235 252.535 57.0235Z" fill="black"/>
<path d="M265.05 64.5425C264.936 64.5425 264.823 64.4857 264.759 64.3863C264.645 64.223 264.688 64.0029 264.851 63.8964L265.334 63.5698C269.165 60.9925 275.582 56.6757 274.211 44.1868C274.189 43.9951 274.331 43.8176 274.523 43.7963C274.715 43.775 274.893 43.917 274.914 44.1087C276.328 57.0236 269.435 61.667 265.725 64.1591L265.242 64.4857C265.192 64.5212 265.121 64.5425 265.05 64.5425Z" fill="black"/>
<path d="M254.582 40.9847C253.587 41.9148 255.584 45.0743 257.311 44.1655C259.038 43.2496 255.947 39.7138 254.582 40.9847Z" fill="black"/>
<path d="M239.651 44.5985C238.656 45.5286 240.653 48.6881 242.38 47.7793C244.107 46.8705 241.015 43.3276 239.651 44.5985Z" fill="black"/>
<path d="M247.468 38.0737C243.346 35.397 248.633 32.9404 253.452 33.7569C258.27 34.5734 258.76 37.1507 256.763 36.9732C254.767 36.7886 251.583 36.6111 250.311 37.3353C249.039 38.0595 248.385 38.6701 247.468 38.0737Z" fill="#151748"/>
<path d="M233.61 44.3429C234.463 43.427 236.503 40.4095 239.118 41.0911C241.207 41.6378 238.393 37.7754 235.408 38.1375C234.001 38.3079 232.558 39.7634 232.068 41.9786C231.798 43.1998 233.376 44.5985 233.61 44.3429Z" fill="#151748"/>
<path d="M275.518 75.4197C270.856 75.4197 266.216 73.666 263.707 69.2072C263.615 69.0368 263.672 68.8167 263.842 68.7244C264.013 68.6321 264.226 68.6889 264.325 68.8593C267.815 75.0718 275.767 75.7108 281.687 73.6731C287.23 71.7632 293.264 66.708 292.027 58.7347C291.999 58.543 292.127 58.3583 292.326 58.3299C292.518 58.3015 292.702 58.4364 292.731 58.6281C294.031 67.0275 287.721 72.3454 281.922 74.3405C279.932 75.0221 277.721 75.4197 275.518 75.4197Z" fill="black"/>
<path d="M219.361 126.171C219.276 126.171 219.191 126.142 219.127 126.085C218.921 125.901 213.996 121.563 213.015 120.214C212.901 120.057 212.937 119.83 213.093 119.717C213.249 119.603 213.477 119.639 213.591 119.795C214.529 121.08 219.546 125.503 219.596 125.546C219.745 125.673 219.759 125.901 219.624 126.05C219.553 126.135 219.461 126.171 219.361 126.171Z" fill="black"/>
<path d="M271.474 140.129C271.396 140.129 271.311 140.101 271.247 140.051C269.158 138.326 261.902 127.477 260.772 123.998C260.715 123.813 260.814 123.615 260.999 123.551C261.184 123.494 261.383 123.593 261.447 123.778C262.52 127.086 269.712 137.864 271.695 139.504C271.844 139.632 271.865 139.852 271.745 140.001C271.681 140.087 271.574 140.129 271.474 140.129Z" fill="black"/>
<path d="M316.901 268.703V147.684C316.901 138.858 309.737 131.701 300.904 131.701H144.564C135.73 131.701 128.567 138.858 128.567 147.684V268.71H316.901V268.703Z" fill="#F1E0D9"/>
<path d="M278.61 232.5C278.61 242.348 270.622 250.328 260.765 250.328C250.908 250.328 242.92 242.348 242.92 232.5C242.92 222.652 250.908 214.672 260.765 214.672C270.622 214.679 278.61 222.659 278.61 232.5Z" fill="#54478D"/>
<path d="M271.091 232.5C271.091 238.201 266.465 242.816 260.765 242.816C255.059 242.816 250.432 238.194 250.432 232.5C250.432 226.799 255.059 222.184 260.765 222.184C266.472 222.184 271.091 226.806 271.091 232.5Z" fill="#7967CC"/>
<path d="M228.842 244.946C228.842 248.56 225.914 251.486 222.297 251.486H161.89C158.273 251.486 155.345 248.56 155.345 244.946V220.693C155.345 217.079 158.273 214.154 161.89 214.154H222.297C225.914 214.154 228.842 217.079 228.842 220.693V244.946Z" fill="#AAD5CE"/>
<path d="M168.606 222.021C168.606 223.81 167.156 225.265 165.358 225.265C163.567 225.265 162.11 223.817 162.11 222.021C162.11 220.231 163.56 218.776 165.358 218.776C167.149 218.776 168.606 220.224 168.606 222.021Z" fill="#F1EFEF"/>
<path d="M203.08 223.086C203.08 224.293 202.107 225.265 200.899 225.265H175.67C174.462 225.265 173.488 224.293 173.488 223.086V220.956C173.488 219.749 174.462 218.776 175.67 218.776H200.899C202.107 218.776 203.08 219.749 203.08 220.956V223.086Z" fill="#F1EFEF"/>
<path d="M168.606 233.139C168.606 234.928 167.156 236.384 165.358 236.384C163.567 236.384 162.11 234.935 162.11 233.139C162.11 231.35 163.56 229.894 165.358 229.894C167.149 229.902 168.606 231.35 168.606 233.139Z" fill="#54478D"/>
<path d="M209.256 234.204C209.256 235.411 208.283 236.384 207.074 236.384H175.67C174.462 236.384 173.488 235.411 173.488 234.204V232.074C173.488 230.867 174.462 229.894 175.67 229.894H207.074C208.283 229.894 209.256 230.867 209.256 232.074V234.204Z" fill="#54478D"/>
<path d="M168.606 244.265C168.606 246.054 167.156 247.51 165.358 247.51C163.567 247.51 162.11 246.061 162.11 244.265C162.11 242.476 163.56 241.02 165.358 241.02C167.149 241.02 168.606 242.476 168.606 244.265Z" fill="#151748"/>
<path d="M219.923 245.33C219.923 246.537 218.949 247.51 217.741 247.51H175.663C174.455 247.51 173.481 246.53 173.481 245.33V243.207C173.481 242 174.455 241.027 175.663 241.027H217.741C218.949 241.027 219.923 242 219.923 243.207V245.33Z" fill="#151748"/>
<path d="M238.905 185.022H197.516L193.507 191.952C190.53 197.1 192.967 201.317 198.923 201.317H237.498C243.453 201.317 245.891 197.1 242.913 191.952L238.905 185.022Z" fill="#151748"/>
<path d="M196.997 185.91H239.423L233.546 175.75H202.874L196.997 185.91Z" fill="#54478D"/>
<path d="M202.128 177.028H234.286L226.888 164.219H209.533L202.128 177.028Z" fill="#AAD5CE"/>
<path d="M228.167 166.435L223.625 158.575C220.648 153.42 215.78 153.42 212.802 158.575L208.261 166.435H228.167Z" fill="#F1EFEF"/>
<path d="M165.429 174.01C178.817 174.01 189.67 163.167 189.67 149.792C189.67 136.417 178.817 125.574 165.429 125.574C152.041 125.574 141.188 136.417 141.188 149.792C141.188 163.167 152.041 174.01 165.429 174.01Z" fill="#82E4F0"/>
<path d="M186.031 137.041C181.753 130.161 174.127 125.574 165.429 125.574V149.792C165.429 149.792 179.173 142.373 186.031 137.041Z" fill="#5FB0A2"/>
<path d="M165.429 149.792L189.378 153.555C189.57 152.327 189.67 151.07 189.67 149.792C189.67 144.73 188.113 140.037 185.455 136.146C178.491 140.931 165.429 149.792 165.429 149.792Z" fill="#151748"/>
<path d="M74.6625 117.153C72.5731 112.02 64.2157 102.364 51.445 107.909C38.6743 113.454 38.0987 124.033 33.6854 137.587C29.2722 151.141 22.0802 165.313 19.8701 172.292C17.667 179.271 18.8254 190.568 29.8549 188.516C29.393 197.554 42.9952 199.144 48.8368 195.701C58.7577 189.85 56.6542 179.264 56.6542 179.264C61.4156 181.217 74.8472 176.573 70.299 162.764C63.7253 142.806 61.5293 121.151 71.8127 121.151C78.6067 116.074 74.6625 117.153 74.6625 117.153Z" fill="#151748"/>
<path d="M78.0166 117.807C76.2399 115.875 73.575 114.392 71.3577 117.7C69.4247 120.583 68.5861 124.119 72.3597 124.878C74.8328 125.375 78.9049 121.257 78.0166 117.807Z" fill="#5FB0A2"/>
<path d="M80.8169 177.411C81.3001 175.232 82.892 163.957 82.892 163.957L88.954 154.997C82.3164 148.039 92.2231 136.955 97.5602 146.036C99.9836 145.433 99.5003 126.54 103.253 123.757C107.012 120.973 118.283 121.818 118.283 121.818C121.311 125.453 122.284 130.658 121.552 136.466C120.827 142.28 119.733 143.97 122.519 146.761C125.305 149.544 127.728 151.603 123.365 154.755C120.7 156.573 120.579 157.297 120.095 160.691C119.612 164.085 119.25 167.954 113.55 169.41C107.858 170.865 103.246 170.496 101.917 170.254C101.071 170.134 99.7348 176.552 99.1308 179.939C98.5267 183.333 80.8169 177.411 80.8169 177.411Z" fill="#FF7E7D"/>
<path d="M147.975 191.448C151.492 187.571 153.795 183.212 158.763 182.488C163.73 181.764 167.127 181.522 169.671 180.791C172.215 180.067 172.699 179.094 174.156 180.791C174.88 175.828 177.304 173.769 178.157 177.156C179.976 173.641 182.52 174.01 181.916 177.035C184.702 174.372 186.884 174.976 186.038 177.759C185.192 180.542 183.131 185.747 179.372 187.323C175.612 188.899 167.255 186.961 163.737 190.837C160.219 194.714 156.467 200.039 156.467 200.039L147.975 191.448Z" fill="#FF7E7D"/>
<path d="M166.218 186.62C166.04 186.62 165.884 186.485 165.862 186.3C165.841 186.102 165.983 185.931 166.175 185.91C168.904 185.619 172.962 184.312 173.637 183.255C174.376 182.104 174.348 181.231 173.545 180.649C173.388 180.535 173.353 180.315 173.467 180.152C173.58 179.996 173.801 179.96 173.964 180.074C174.618 180.549 175.52 181.643 174.234 183.638C173.275 185.136 168.52 186.371 166.246 186.613C166.239 186.62 166.225 186.62 166.218 186.62Z" fill="black"/>
<path d="M173.914 184.05C173.715 184.05 173.559 183.894 173.559 183.695C173.559 183.496 173.715 183.34 173.914 183.34C175.364 183.34 176.913 183.077 178.42 181.174C179.102 180.315 179.656 179.541 180.146 178.86C180.822 177.915 181.362 177.17 181.909 176.652C182.051 176.517 182.278 176.524 182.414 176.666C182.549 176.808 182.541 177.035 182.399 177.17C181.902 177.638 181.383 178.356 180.729 179.271C180.239 179.96 179.677 180.741 178.981 181.614C177.275 183.759 175.456 184.05 173.914 184.05Z" fill="black"/>
<path d="M175.67 183.567C175.599 183.567 175.528 183.546 175.471 183.503C175.307 183.389 175.265 183.169 175.378 183.006C175.599 182.679 175.911 181.813 176.245 180.897C176.849 179.208 177.603 177.106 178.562 176.069C178.697 175.927 178.917 175.913 179.067 176.048C179.209 176.183 179.223 176.403 179.088 176.552C178.228 177.482 177.503 179.513 176.913 181.139C176.537 182.182 176.245 183.013 175.968 183.411C175.89 183.51 175.783 183.567 175.67 183.567Z" fill="black"/>
<path d="M138.95 192.534C140.861 190.355 142.858 187.089 145.31 189.176C147.762 191.263 154.854 195.985 156.489 197.256C158.123 198.527 160.127 199.251 158.123 202.07C156.126 204.881 137.308 229.405 129.036 237.484C120.764 245.564 113.494 247.112 101.86 233.941C99.5858 238.848 92.0456 241.751 90.7735 246.927C89.5014 252.103 89.807 268.206 89.807 268.206L45.2056 267.965C45.2056 267.965 53.7265 234.346 57.5498 224.449C61.3661 214.551 63.0575 205.279 71.4078 191.256C74.9185 185.363 77.9389 183.354 79.7582 175.814C80.0282 174.181 80.149 172.69 82.4232 173.329C84.6973 173.968 98.1431 177.731 99.5076 178.455C100.872 179.179 99.0528 182.452 97.1411 189.623C103.047 194.345 110.139 204.242 113.685 208.878C117.232 213.508 120.593 216.419 123.684 212.968C126.769 209.517 138.95 192.534 138.95 192.534Z" fill="#7967CC"/>
<path d="M102.315 234.666C102.222 234.666 102.13 234.63 102.059 234.559C98.1644 230.576 84.9673 216.12 83.0343 213.643C82.9135 213.486 82.9419 213.266 83.0983 213.146C83.2546 213.025 83.4749 213.053 83.5957 213.209C85.5216 215.68 98.6761 230.093 102.571 234.069C102.706 234.211 102.706 234.431 102.563 234.573C102.492 234.63 102.407 234.666 102.315 234.666Z" fill="black"/>
<path d="M97.9511 190.709C97.8659 190.709 97.7877 190.681 97.7166 190.624C94.8882 188.168 90.9368 187.167 89.7713 187.167C89.5724 187.167 89.416 187.01 89.416 186.812C89.416 186.613 89.5724 186.457 89.7713 186.457C91.2069 186.457 95.2719 187.55 98.1857 190.085C98.3349 190.212 98.3491 190.44 98.2212 190.589C98.1501 190.667 98.0506 190.709 97.9511 190.709Z" fill="black"/>
<path d="M83.0413 164.198C84.7398 164.077 86.4027 162.139 88.954 154.997C86.5307 151.241 87.2555 146.64 90.5317 144.098C93.8008 141.556 96.1033 144.219 97.8018 147.243C99.5003 150.268 100.588 150.637 102.045 149.785C103.501 148.94 107.694 142.792 102.848 129.834C102.059 127.534 103.736 125.326 107.616 125.688C111.496 126.05 115.739 126.05 119.008 122.905C119.975 121.449 117.857 117.494 110.31 114.122C104.518 111.537 86.0119 108.662 75.5011 119.631C68.2452 127.207 67.0726 134.222 67.3 139.036C67.6553 146.682 73.5894 158.731 83.0413 164.198Z" fill="#151748"/>
<path d="M92.7703 157.027C90.6099 157.027 88.8404 155.927 87.7886 153.832C87.7033 153.655 87.7744 153.442 87.9449 153.356C88.1155 153.271 88.3358 153.342 88.4211 153.513C89.7571 156.182 92.4434 156.999 95.6059 155.707C95.7836 155.636 95.9968 155.721 96.0678 155.898C96.1389 156.083 96.0536 156.289 95.876 156.36C94.7815 156.807 93.7368 157.027 92.7703 157.027Z" fill="black"/>
<path d="M120.102 161.046C120.088 161.046 120.074 161.046 120.053 161.046C118.155 160.797 116.457 158.454 115.618 156.246C115.547 156.062 115.64 155.856 115.824 155.792C116.009 155.721 116.215 155.813 116.286 155.998C117.025 157.943 118.553 160.13 120.152 160.343C120.344 160.371 120.486 160.549 120.458 160.74C120.429 160.911 120.28 161.046 120.102 161.046Z" fill="black"/>
<path d="M102.677 170.822C102.663 170.822 102.649 170.822 102.635 170.822C100.105 170.531 96.6081 168.636 95.3644 167.663C95.2081 167.542 95.1867 167.315 95.3076 167.166C95.4284 167.01 95.6487 166.988 95.805 167.109C96.9563 168.018 100.353 169.85 102.713 170.127C102.905 170.148 103.047 170.325 103.025 170.517C103.011 170.688 102.855 170.822 102.677 170.822Z" fill="black"/>
<path d="M112.221 137.31C112.122 137.31 112.022 137.268 111.951 137.19C111.823 137.041 111.838 136.813 111.987 136.686C112.683 136.089 115.227 134.179 118.795 134.513C118.987 134.534 119.136 134.705 119.115 134.896C119.093 135.088 118.923 135.23 118.731 135.216C115.434 134.911 113.088 136.671 112.449 137.218C112.385 137.282 112.307 137.31 112.221 137.31Z" fill="black"/>
<path d="M115.22 144.034C115.121 144.034 115.014 143.991 114.95 143.906C114.822 143.757 114.844 143.53 114.993 143.409C115.412 143.061 116.279 141.954 116.571 141.563C116.691 141.407 116.912 141.372 117.068 141.492C117.224 141.613 117.26 141.833 117.139 141.989C117.096 142.053 116.016 143.48 115.448 143.956C115.384 144.006 115.306 144.034 115.22 144.034Z" fill="black"/>
<path d="M115.497 143.196C114.524 143.111 113.01 146.952 114.467 147.194C115.917 147.435 116.826 143.317 115.497 143.196Z" fill="black"/>
<path d="M301.315 186.428C301.315 191.242 297.407 195.147 292.588 195.147H257.439C252.621 195.147 248.712 191.242 248.712 186.428V150.829C248.712 146.015 252.621 142.11 257.439 142.11H292.588C297.407 142.11 301.315 146.015 301.315 150.829V186.428Z" fill="#F1EFEF"/>
<path d="M266.557 182.907C266.557 185.257 264.652 187.16 262.3 187.16C259.955 187.16 258.043 185.257 258.043 182.907V164.738C258.043 162.388 259.948 160.485 262.3 160.485C264.652 160.485 266.557 162.388 266.557 164.738V182.907Z" fill="#AAD5CE"/>
<path d="M278.446 182.907C278.446 185.257 276.542 187.16 274.19 187.16C271.844 187.16 269.933 185.257 269.933 182.907V157.929C269.933 155.579 271.837 153.676 274.19 153.676C276.542 153.676 278.446 155.579 278.446 157.929V182.907Z" fill="#54478D"/>
<path d="M290.336 182.907C290.336 185.257 288.431 187.16 286.079 187.16C283.726 187.16 281.822 185.257 281.822 182.907V151.752C281.822 149.409 283.726 147.499 286.079 147.499C288.424 147.499 290.336 149.402 290.336 151.752V182.907Z" fill="#151748"/>
<path d="M353.445 269.164H24.6962C24.3909 269.164 24.1411 268.845 24.1411 268.454C24.1411 268.064 24.3909 267.744 24.6962 267.744H353.445C353.75 267.744 354 268.064 354 268.454C354 268.845 353.75 269.164 353.445 269.164Z" fill="#7967CC"/>
</svg>
